<svg width="25" height="21" viewBox="0 0 25 21" fill="none" xmlns="http://www.w3.org/2000/svg">
<path d="M23.7704 7.31689C23.7062 7.31689 23.6447 7.34238 23.5993 7.38775C23.5539 7.43312 23.5284 7.49466 23.5284 7.55882V8.48781C23.5284 8.55197 23.5539 8.61351 23.5993 8.65888C23.6447 8.70425 23.7062 8.72974 23.7704 8.72974C23.8345 8.72974 23.8961 8.70425 23.9414 8.65888C23.9868 8.61351 24.0123 8.55197 24.0123 8.48781V7.55882C24.0123 7.49466 23.9868 7.43312 23.9414 7.38775C23.8961 7.34238 23.8345 7.31689 23.7704 7.31689Z" fill="#1A80E5"/>
<path d="M24.0214 5.17392C24.0184 5.13284 24.006 5.09299 23.9852 5.05743C23.9644 5.02187 23.9358 4.99155 23.9014 4.96877L22.2418 4.01075C22.2051 3.98951 22.1633 3.97834 22.1209 3.97834C22.0784 3.97834 22.0367 3.98951 21.9999 4.01075L21.0177 4.57975L17.7038 2.66371L17.7082 1.52957C17.7078 1.48729 17.6965 1.44583 17.6753 1.40927C17.6541 1.3727 17.6237 1.34229 17.5872 1.32103L17.5867 1.32054L15.9271 0.367358C15.8903 0.346055 15.8486 0.334876 15.8061 0.334961C15.7636 0.335046 15.7219 0.346391 15.6852 0.367841L0.93357 8.93634H0.932602C0.896766 8.9585 0.866968 8.98919 0.845863 9.02566C0.824758 9.06213 0.813001 9.10325 0.81164 9.14536L0.797608 15.8418C0.797524 15.8844 0.808663 15.9262 0.8299 15.9631C0.851138 15.9999 0.881723 16.0306 0.91857 16.0518L2.57334 17.0099C2.61001 17.0311 2.65162 17.0423 2.69399 17.0424C2.73636 17.0425 2.77802 17.0314 2.81478 17.0103L2.81526 17.0099L3.79264 16.4413L7.1104 18.3569L7.10701 19.4848C7.10701 19.5718 7.15298 19.6517 7.22797 19.6952L8.88758 20.6532C8.96306 20.6968 9.05547 20.6958 9.1295 20.6532C9.19918 20.6136 23.826 12.1172 23.8826 12.0843C23.9193 12.0631 23.9498 12.0326 23.971 11.9959C23.9922 11.9592 24.0034 11.9176 24.0035 11.8752L24.0079 9.36406C24.0079 9.33229 24.0018 9.30082 23.9897 9.27145C23.9776 9.24207 23.9598 9.21536 23.9374 9.19285C23.915 9.17034 23.8883 9.15247 23.859 9.14025C23.8297 9.12804 23.7982 9.12172 23.7664 9.12165C23.7347 9.12159 23.7032 9.12779 23.6738 9.13988C23.6445 9.15198 23.6177 9.16975 23.5952 9.19217C23.5727 9.21459 23.5549 9.24122 23.5426 9.27055C23.5304 9.29988 23.5241 9.33133 23.524 9.3631L23.5192 11.7354L9.25192 20.0228L9.26982 13.8871L23.5371 5.59923L23.5337 6.57999C23.5336 6.61176 23.5397 6.64324 23.5518 6.67265C23.5638 6.70205 23.5815 6.72879 23.6039 6.75134C23.6263 6.7739 23.6529 6.79182 23.6822 6.8041C23.7115 6.81637 23.7429 6.82276 23.7747 6.82288H23.7756C23.8396 6.82288 23.901 6.79753 23.9464 6.75237C23.9917 6.70721 24.0173 6.64592 24.0176 6.58193L24.0214 5.17392ZM17.2224 1.951L17.2209 2.38453L16.8464 2.16873L17.2224 1.951ZM2.95509 10.2432L3.56862 9.88662L3.5512 16.0223L2.93768 16.3794L2.95509 10.2432ZM1.29549 9.56438L2.47173 10.2432L2.45383 16.3818L1.28243 15.703L1.29549 9.56438ZM4.03553 16.0223L4.05295 9.88372L7.98326 12.1554L7.24781 12.5797C7.21319 12.6032 7.18432 12.6342 7.16337 12.6704C7.14243 12.7066 7.12994 12.747 7.12685 12.7888L7.11233 17.799L4.03553 16.0223ZM7.60925 13.2087L8.78597 13.8876L8.76807 20.0252L7.59231 19.3464L7.60925 13.2087ZM9.02789 13.4676L7.85262 12.7892L8.58807 12.3649C8.62485 12.3437 8.65539 12.3131 8.67662 12.2764C8.69785 12.2396 8.70903 12.1979 8.70903 12.1554C8.70903 12.1129 8.69785 12.0712 8.67662 12.0344C8.65539 11.9977 8.62485 11.9671 8.58807 11.9459L3.93344 9.25568C3.89601 9.23649 3.85454 9.22648 3.81248 9.22648C3.77041 9.22648 3.72895 9.23649 3.69151 9.25568H3.69055V9.25617L2.71317 9.8242L1.53741 9.14585L15.8071 0.85653L16.9819 1.53102L16.2416 1.95971C16.205 1.98102 16.1746 2.01158 16.1535 2.04833C16.1324 2.08508 16.1213 2.12673 16.1213 2.16911C16.1214 2.21149 16.1326 2.25312 16.1537 2.28982C16.1749 2.32652 16.2054 2.35701 16.2421 2.37824L20.8967 5.06844C20.9335 5.08968 20.9752 5.10085 21.0177 5.10085C21.0602 5.10085 21.1019 5.08968 21.1387 5.06844L22.1209 4.49992L23.2981 5.17924L9.02789 13.4676Z" fill="#1A80E5"/>
<path d="M10.5086 5.42171L12.4488 6.53941C12.4856 6.56073 12.5274 6.57196 12.57 6.57196C12.6126 6.57196 12.6544 6.56073 12.6912 6.53941L15.7153 4.77819C15.752 4.75692 15.7825 4.72634 15.8037 4.68954C15.8249 4.65274 15.836 4.61101 15.836 4.56855C15.8359 4.52608 15.8247 4.48438 15.8034 4.44763C15.7822 4.41088 15.7516 4.38037 15.7148 4.35918C15.0122 3.95468 13.8655 3.28794 13.7649 3.23762C13.7314 3.21954 13.6939 3.2102 13.6558 3.21045C13.6178 3.21071 13.5804 3.22055 13.5471 3.23907C13.4978 3.26471 10.4592 5.02157 10.5076 5.00318C10.471 5.02454 10.4406 5.05513 10.4195 5.09191C10.3985 5.12868 10.3874 5.17035 10.3875 5.21273C10.3876 5.25511 10.3989 5.29672 10.4201 5.3334C10.4413 5.37008 10.4718 5.40053 10.5086 5.42171ZM13.8989 5.27608V3.86952L15.1114 4.56966L13.8989 5.27608ZM13.415 3.87243V5.55768L12.5688 6.05072L11.1124 5.21124L13.415 3.87243ZM17.0062 5.10431C16.9428 5.06754 16.8126 5.07673 16.7647 5.10431L16.7643 5.10479L13.7354 6.86601C13.6987 6.88727 13.6683 6.9178 13.6471 6.95452C13.626 6.99125 13.6148 7.03289 13.6148 7.07527C13.6148 7.11765 13.626 7.15929 13.6471 7.19602C13.6683 7.23275 13.6987 7.26327 13.7354 7.28454L15.6708 8.40223C15.7076 8.42364 15.7495 8.43492 15.7922 8.43492C15.8349 8.43492 15.8768 8.42364 15.9136 8.40223C17.7378 7.34453 18.9711 6.62457 18.943 6.64102C18.9798 6.6197 19.0102 6.58909 19.0314 6.55226C19.0525 6.51544 19.0636 6.47369 19.0635 6.43123C19.0634 6.38877 19.0521 6.34707 19.0308 6.31035C19.0095 6.27362 18.9789 6.24315 18.9421 6.222L17.0062 5.10431ZM17.1276 7.13648V5.73283L18.3392 6.43248L17.1276 7.13648ZM14.3392 7.07455L16.6438 5.73428V7.41808L15.7917 7.91306L14.3392 7.07455ZM11.0984 7.04455L9.18958 5.94621C9.14925 5.92039 9.10308 5.90512 9.05531 5.90183C9.00753 5.89853 8.9597 5.9073 8.91621 5.92734L5.89214 7.68371C5.85551 7.70502 5.82511 7.73558 5.804 7.77233C5.78289 7.80908 5.7718 7.85074 5.77185 7.89312C5.7719 7.9355 5.78308 7.97713 5.80428 8.01383C5.82547 8.05053 5.85594 8.08102 5.89263 8.10224L7.83287 9.21994C7.86976 9.24135 7.91166 9.25263 7.95431 9.25263C7.99697 9.25263 8.03887 9.24135 8.07576 9.21994L11.0998 7.46356C11.1365 7.4422 11.167 7.41155 11.1881 7.37471C11.2092 7.33786 11.2202 7.2961 11.22 7.25364C11.2199 7.21117 11.2086 7.16949 11.1872 7.13279C11.1659 7.09609 11.1352 7.06565 11.0984 7.04455ZM7.95334 8.73125L6.49696 7.89177L8.80008 6.55392V8.23917L7.95334 8.73125ZM9.28393 7.95806V6.55973L10.494 7.25502L9.28393 7.95806ZM14.3208 8.90737L12.4169 7.80951C12.3767 7.78319 12.3306 7.76759 12.2827 7.7642C12.2348 7.76081 12.1869 7.76975 12.1435 7.79016L9.11942 9.54654C9.08276 9.5678 9.05233 9.59833 9.03118 9.63505C9.01002 9.67178 8.99889 9.71342 8.99889 9.7558C8.99889 9.79818 9.01002 9.83982 9.03118 9.87655C9.05233 9.91327 9.08276 9.9438 9.11942 9.96507L11.0548 11.0828C11.0917 11.1041 11.1335 11.1153 11.176 11.1153C11.2186 11.1153 11.2604 11.1041 11.2972 11.0828L14.3213 9.32638C14.3582 9.30525 14.3889 9.27474 14.4102 9.23796C14.4315 9.20117 14.4427 9.1594 14.4427 9.11688C14.4427 9.07436 14.4315 9.03259 14.4102 8.9958C14.3889 8.95901 14.3577 8.9285 14.3208 8.90737ZM9.72327 9.75507L12.0278 8.41675V10.0991L11.1763 10.5941L9.72327 9.75507ZM12.5117 9.81798V8.42304L13.7174 9.11784L12.5117 9.81798Z" fill="#1A80E5"/>
</svg>
