<svg width="27" height="26" viewBox="0 0 27 26" fill="none" xmlns="http://www.w3.org/2000/svg">
<mask id="mask0_311_1962" style="mask-type:luminance" maskUnits="userSpaceOnUse" x="0" y="0" width="27" height="26">
<path d="M25.7492 25.0844V0.421484H1.08628V25.0844H25.7492Z" fill="white" stroke="white" stroke-width="0.8"/>
</mask>
<g mask="url(#mask0_311_1962)">
<path d="M2.52783 17.8071L7.57714 9.06073C10.1732 4.56493 16.6622 4.56493 19.2582 9.06073L19.8829 10.1429" stroke="#1A80E5" stroke-width="0.8" stroke-miterlimit="10" stroke-linecap="round" stroke-linejoin="round"/>
<path d="M24.3075 17.8071L20.6223 11.4235" stroke="#1A80E5" stroke-width="0.8" stroke-miterlimit="10" stroke-linecap="round" stroke-linejoin="round"/>
<path d="M7.23047 19.8169H24.771C25.326 19.8169 25.7761 19.3668 25.7761 18.8118C25.7761 18.5343 25.6637 18.2832 25.4817 18.1011C25.3884 18.0078 25.2776 17.9338 25.1556 17.8834C25.0337 17.8329 24.903 17.8071 24.771 17.8072H2.06429C1.50928 17.8072 1.0592 18.2568 1.0592 18.8118C1.0592 19.0893 1.1716 19.3405 1.35362 19.5225C1.44683 19.616 1.5576 19.6901 1.67956 19.7406C1.80153 19.7912 1.93228 19.8171 2.06429 19.8169H5.73851" stroke="#1A80E5" stroke-width="0.8" stroke-miterlimit="10" stroke-linecap="round" stroke-linejoin="round"/>
<path d="M21.0022 15.9756V15.9509" stroke="#1A80E5" stroke-width="0.8" stroke-miterlimit="10" stroke-linecap="round" stroke-linejoin="round"/>
<path d="M20.467 15.0005V14.9758" stroke="#1A80E5" stroke-width="0.8" stroke-miterlimit="10" stroke-linecap="round" stroke-linejoin="round"/>
<path d="M19.8665 15.8628V15.8381" stroke="#1A80E5" stroke-width="0.8" stroke-miterlimit="10" stroke-linecap="round" stroke-linejoin="round"/>
<path d="M6.07996 15.8506V15.8259" stroke="#1A80E5" stroke-width="0.8" stroke-miterlimit="10" stroke-linecap="round" stroke-linejoin="round"/>
<path d="M7.08569 15.5312V15.5066" stroke="#1A80E5" stroke-width="0.8" stroke-miterlimit="10" stroke-linecap="round" stroke-linejoin="round"/>
<path d="M6.23584 14.6616V14.637" stroke="#1A80E5" stroke-width="0.8" stroke-miterlimit="10" stroke-linecap="round" stroke-linejoin="round"/>
<path d="M15.8475 9.01855V8.99391" stroke="#1A80E5" stroke-width="0.8" stroke-miterlimit="10" stroke-linecap="round" stroke-linejoin="round"/>
<path d="M16.8694 9.39648V9.37184" stroke="#1A80E5" stroke-width="0.8" stroke-miterlimit="10" stroke-linecap="round" stroke-linejoin="round"/>
<path d="M15.8475 10.0122V9.98756" stroke="#1A80E5" stroke-width="0.8" stroke-miterlimit="10" stroke-linecap="round" stroke-linejoin="round"/>
<path d="M12.8944 11.7607V11.7361" stroke="#1A80E5" stroke-width="0.8" stroke-miterlimit="10" stroke-linecap="round" stroke-linejoin="round"/>
<path d="M14.2667 14.627V14.6023" stroke="#1A80E5" stroke-width="0.8" stroke-miterlimit="10" stroke-linecap="round" stroke-linejoin="round"/>
<path d="M8.06738 12.1885V12.1638" stroke="#1A80E5" stroke-width="0.8" stroke-miterlimit="10" stroke-linecap="round" stroke-linejoin="round"/>
<path d="M8.96667 11.3369V11.3123" stroke="#1A80E5" stroke-width="0.8" stroke-miterlimit="10" stroke-linecap="round" stroke-linejoin="round"/>
<path d="M17.0587 12.7817V12.7571" stroke="#1A80E5" stroke-width="0.8" stroke-miterlimit="10" stroke-linecap="round" stroke-linejoin="round"/>
<path d="M13.131 7.8125V7.78785" stroke="#1A80E5" stroke-width="0.8" stroke-miterlimit="10" stroke-linecap="round" stroke-linejoin="round"/>
</g>
</svg>
