<svg width="24" height="23" viewBox="0 0 24 23" fill="none" xmlns="http://www.w3.org/2000/svg">
<path d="M12.0024 17.6165C11.9553 17.6163 11.9087 17.606 11.8659 17.5861L6.08562 14.8059C6.03282 14.7797 5.98833 14.7394 5.95709 14.6894C5.92586 14.6394 5.9091 14.5818 5.90869 14.5228V8.3002C5.90853 8.24704 5.92189 8.19472 5.94752 8.14815C5.97315 8.10158 6.0102 8.06229 6.05519 8.03398C6.10018 8.00567 6.15163 7.98927 6.20471 7.98632C6.25778 7.98337 6.31073 7.99397 6.35858 8.01712L12.1389 10.7973C12.1917 10.8235 12.2362 10.8639 12.2674 10.9138C12.2987 10.9638 12.3154 11.0215 12.3158 11.0804V17.3031C12.3158 17.3561 12.3024 17.4082 12.2768 17.4547C12.2511 17.5011 12.2141 17.5402 12.1692 17.5684C12.1194 17.6002 12.0615 17.6169 12.0024 17.6165ZM6.53551 14.3307L11.689 16.8127V11.2801L6.53551 8.79811V14.3307Z" fill="#1A80E5"/>
<path d="M12.0024 11.3913C11.9587 11.3944 11.9148 11.3884 11.8735 11.3736L6.0932 8.59343C6.03953 8.56843 5.99412 8.52863 5.9623 8.47871C5.93048 8.42879 5.91357 8.37081 5.91357 8.31161C5.91357 8.25241 5.93048 8.19444 5.9623 8.14452C5.99412 8.09459 6.03953 8.05479 6.0932 8.0298L11.8735 5.23694C11.9158 5.21693 11.962 5.20654 12.0088 5.20654C12.0555 5.20654 12.1017 5.21693 12.144 5.23694L17.9243 8.01716C17.9775 8.04288 18.0223 8.0831 18.0536 8.13319C18.0849 8.18327 18.1014 8.24118 18.1012 8.30024C18.1012 8.35893 18.0846 8.41643 18.0533 8.46608C18.022 8.51573 17.9773 8.5555 17.9243 8.58079L12.1263 11.3736C12.0866 11.3878 12.0445 11.3938 12.0024 11.3913ZM6.94749 8.29771L12.0024 10.7317L17.0574 8.30277L12.0024 5.86628L6.94749 8.29771Z" fill="#1A80E5"/>
<path d="M12.0026 17.6166C11.9436 17.6171 11.8856 17.6004 11.8358 17.5686C11.7909 17.5404 11.754 17.5012 11.7283 17.4548C11.7027 17.4084 11.6892 17.3562 11.6892 17.3032V11.0831C11.6891 11.024 11.7056 10.9661 11.7369 10.916C11.7682 10.866 11.813 10.8257 11.8662 10.8L17.6465 8.0198C17.6943 7.99665 17.7473 7.98606 17.8004 7.98901C17.8534 7.99196 17.9049 8.00836 17.9499 8.03666C17.9949 8.06497 18.0319 8.10426 18.0576 8.15083C18.0832 8.1974 18.0965 8.24972 18.0964 8.30288V14.5205C18.0966 14.5795 18.0801 14.6374 18.0487 14.6875C18.0174 14.7376 17.9726 14.7778 17.9195 14.8035L12.1265 17.5863C12.0877 17.6048 12.0456 17.6151 12.0026 17.6166ZM12.3161 11.2802V16.8053L17.4696 14.3233V8.79826L12.3161 11.2802ZM9.11122 10.0013C9.04085 10.0006 8.97277 9.97625 8.91793 9.93213C8.8631 9.88801 8.82472 9.82673 8.80896 9.75814C8.7932 9.68955 8.80098 9.61765 8.83105 9.55403C8.86112 9.4904 8.91174 9.43875 8.97474 9.40739L14.7576 6.62716C14.8324 6.59153 14.9182 6.58695 14.9964 6.61442C15.0745 6.64188 15.1386 6.69917 15.1746 6.77376C15.1926 6.81073 15.2031 6.85089 15.2055 6.89194C15.2078 6.93298 15.202 6.97409 15.1884 7.01287C15.1747 7.05166 15.1535 7.08735 15.126 7.11789C15.0985 7.14843 15.0652 7.17321 15.028 7.19079L9.2477 9.97101C9.20486 9.99065 9.15835 10.001 9.11122 10.0013ZM9.88715 12.731C9.83997 12.7312 9.79333 12.7209 9.75067 12.7007L8.04463 11.8793C8.00747 11.8617 7.97416 11.8369 7.94664 11.8064C7.91912 11.7758 7.89792 11.7401 7.88429 11.7013C7.87066 11.6625 7.86485 11.6214 7.86721 11.5804C7.86957 11.5394 7.88005 11.4992 7.89803 11.4622C7.93407 11.3876 7.99816 11.3303 8.0763 11.3029C8.15445 11.2754 8.24029 11.28 8.31507 11.3156L10.0211 12.132C10.0839 12.1633 10.1345 12.2147 10.1646 12.2781C10.1947 12.3414 10.2027 12.4131 10.1872 12.4816C10.1718 12.55 10.1338 12.6113 10.0794 12.6556C10.025 12.6999 9.95731 12.7247 9.88715 12.726V12.731Z" fill="#1A80E5"/>
<path d="M2.50683 15.602C2.44566 15.603 2.38554 15.5861 2.3339 15.5533C2.28225 15.5205 2.24132 15.4733 2.21617 15.4175C1.2675 13.0715 1.19398 10.4625 2.00903 8.06672C2.82407 5.67095 4.47334 3.64808 6.65588 2.36725C8.83842 1.08641 11.4087 0.632996 13.8978 1.08974C16.3868 1.54648 18.6287 2.88293 20.2143 4.85522C20.2437 4.88661 20.2663 4.92372 20.2808 4.96424C20.2952 5.00476 20.3012 5.04781 20.2982 5.09073C20.2953 5.13364 20.2836 5.1755 20.2638 5.21369C20.244 5.25187 20.2166 5.28558 20.1832 5.3127C20.1498 5.33983 20.1112 5.35979 20.0698 5.37135C20.0283 5.3829 19.985 5.38581 19.9424 5.37988C19.8998 5.37395 19.8588 5.35932 19.8221 5.33689C19.7854 5.31446 19.7537 5.28471 19.729 5.24951C18.2375 3.39996 16.1316 2.1472 13.7945 1.71905C11.4573 1.2909 9.04413 1.71582 6.99379 2.91652C4.94346 4.11722 3.39217 6.01394 2.62207 8.26172C1.85197 10.5095 1.91422 12.959 2.79749 15.1648C2.81647 15.2123 2.82353 15.2637 2.81805 15.3146C2.81256 15.3655 2.79471 15.4143 2.76603 15.4566C2.73736 15.499 2.69875 15.5338 2.65356 15.5578C2.60838 15.5818 2.558 15.5944 2.50683 15.5945V15.602ZM12.0152 22.0117C10.4371 22.0155 8.8783 21.6647 7.45393 20.9853C6.02955 20.3059 4.77596 19.3153 3.78573 18.0865C3.73344 18.0195 3.70993 17.9345 3.72036 17.8501C3.73078 17.7657 3.7743 17.6889 3.84133 17.6367C3.90837 17.5844 3.99342 17.5608 4.07779 17.5713C4.16216 17.5817 4.23894 17.6252 4.29122 17.6923C5.7919 19.5396 7.90673 20.7859 10.2499 21.2037C12.593 21.6214 15.0082 21.1829 17.0549 19.968C19.1015 18.7531 20.6432 16.8429 21.3986 14.5859C22.154 12.3288 22.0727 9.87546 21.1697 7.67335C21.1527 7.63514 21.1435 7.59392 21.1427 7.55211C21.1419 7.51031 21.1495 7.46877 21.165 7.42993C21.1805 7.3911 21.2036 7.35576 21.233 7.32599C21.2624 7.29623 21.2974 7.27264 21.336 7.25662C21.3746 7.24059 21.4161 7.23246 21.4579 7.2327C21.4997 7.23294 21.541 7.24154 21.5795 7.258C21.6179 7.27446 21.6527 7.29844 21.6817 7.32854C21.7107 7.35863 21.7334 7.39424 21.7485 7.43324C22.6096 9.54081 22.7703 11.8694 22.2069 14.0753C21.6435 16.2811 20.3858 18.2474 18.6195 19.6839C16.7495 21.1931 14.4182 22.0148 12.0152 22.0117Z" fill="#1A80E5"/>
<path d="M19.9971 5.38873H19.9617L17.0424 5.07279C16.964 5.05899 16.8938 5.01588 16.8461 4.9522C16.7983 4.88853 16.7766 4.80906 16.7852 4.72994C16.7939 4.65082 16.8324 4.57796 16.8928 4.52616C16.9533 4.47436 17.0312 4.4475 17.1107 4.45104L19.7089 4.73158L19.9996 2.12323C20.0015 2.0804 20.0122 2.03842 20.0309 1.99988C20.0497 1.96134 20.0762 1.92706 20.1087 1.89917C20.1413 1.87127 20.1792 1.85035 20.2202 1.83769C20.2611 1.82504 20.3043 1.82092 20.3469 1.8256C20.3895 1.83028 20.4307 1.84365 20.4679 1.86489C20.5052 1.88612 20.5377 1.91477 20.5634 1.94907C20.5891 1.98336 20.6075 2.02257 20.6175 2.06426C20.6275 2.10596 20.6288 2.14925 20.6213 2.19147L20.3079 5.11071C20.2985 5.19328 20.2567 5.26874 20.1917 5.32049C20.1367 5.36508 20.0679 5.3892 19.9971 5.38873ZM3.69739 21.097H3.662C3.57964 21.0881 3.50415 21.0469 3.45205 20.9825C3.39996 20.9181 3.37548 20.8356 3.38398 20.7532L3.69991 17.834C3.70384 17.7932 3.71594 17.7536 3.73548 17.7176C3.75501 17.6815 3.7816 17.6498 3.81365 17.6242C3.87836 17.5721 3.96099 17.5476 4.04365 17.556L6.96288 17.8694C7.0409 17.8833 7.11076 17.9263 7.15837 17.9896C7.20598 18.053 7.22782 18.132 7.21949 18.2109C7.21116 18.2897 7.17328 18.3624 7.11347 18.4144C7.05367 18.4664 6.97638 18.4938 6.89717 18.4911L4.29134 18.2106L4.00574 20.8189C3.99764 20.8951 3.96168 20.9657 3.90478 21.017C3.84787 21.0683 3.77401 21.0968 3.69739 21.097Z" fill="#1A80E5"/>
</svg>
