<svg width="24" height="23" viewBox="0 0 24 23" fill="none" xmlns="http://www.w3.org/2000/svg">
<g clip-path="url(#clip0_221_1234)">
<path d="M23.4566 22.2812H20.9409V15.2734H23.4566C23.5519 15.2734 23.6433 15.2356 23.7107 15.1682C23.7781 15.1008 23.8159 15.0094 23.8159 14.9141C23.8159 14.8188 23.7781 14.7273 23.7107 14.6599C23.6433 14.5926 23.5519 14.5547 23.4566 14.5547H20.5816C20.5455 14.5551 20.5097 14.5612 20.4756 14.5727C19.7665 14.0929 18.9581 13.7796 18.1109 13.6562C16.6734 13.4766 15.4371 13.897 14.4399 14.2348C14.0798 14.3685 13.7105 14.4754 13.3348 14.5547C12.3993 14.7207 11.4482 14.781 10.4993 14.7344H9.80032C8.99173 14.7344 8.54251 15.0057 8.29095 15.3507L4.05032 12.8099C3.58853 12.5296 2.1672 11.6797 1.2472 12.9016C1.10658 13.0767 1.00236 13.2782 0.940652 13.4942C0.87894 13.7102 0.86098 13.9364 0.887823 14.1594C0.930987 14.4056 1.02322 14.6407 1.15904 14.8506C1.29486 15.0605 1.4715 15.241 1.67845 15.3812C2.94884 16.3336 7.24876 19.5141 9.10134 20.4466C10.9539 21.3792 11.7392 21.5625 13.7534 21.5625H20.2222V22.6406C20.2222 22.7359 20.2601 22.8273 20.3275 22.8947C20.3949 22.9621 20.4863 23 20.5816 23H23.4566C23.5519 23 23.6433 22.9621 23.7107 22.8947C23.7781 22.8273 23.8159 22.7359 23.8159 22.6406C23.8159 22.5453 23.7781 22.4539 23.7107 22.3865C23.6433 22.3191 23.5519 22.2812 23.4566 22.2812ZM13.7534 20.8438C11.8398 20.8438 11.1911 20.6874 9.42118 19.8034C7.62431 18.9049 3.36751 15.7496 2.1097 14.8063C1.97798 14.7226 1.86444 14.6134 1.77584 14.4849C1.68724 14.3565 1.6254 14.2116 1.59399 14.0587C1.57477 13.7987 1.65651 13.5413 1.8222 13.34C1.89229 13.2296 1.98919 13.1387 2.10387 13.0759C2.21856 13.0131 2.34729 12.9803 2.47806 12.9806C2.75837 12.9806 3.13931 13.1028 3.68556 13.4298L8.02681 16.0353C8.01088 16.14 8.00307 16.2457 8.00345 16.3516C8.00345 17.6759 9.67454 18.1484 11.2378 18.1484C12.6484 18.1484 15.6779 18.3281 15.7084 18.3281C15.7556 18.331 15.8029 18.3245 15.8476 18.309C15.8923 18.2936 15.9335 18.2695 15.9689 18.2381C16.0043 18.2067 16.0331 18.1687 16.0538 18.1262C16.0745 18.0837 16.0866 18.0375 16.0894 17.9903C16.0922 17.9431 16.0857 17.8958 16.0703 17.8511C16.0548 17.8065 16.0307 17.7653 15.9994 17.7299C15.968 17.6945 15.93 17.6657 15.8875 17.645C15.8449 17.6243 15.7988 17.6122 15.7516 17.6094C15.6258 17.6094 12.6753 17.4297 11.2378 17.4297C9.98001 17.4297 8.7222 17.0955 8.7222 16.3516C8.7222 15.9077 8.84978 15.4531 9.80032 15.4531C10.0393 15.4531 10.2603 15.4531 10.4795 15.4657C11.4749 15.5115 12.4722 15.447 13.4534 15.2734C13.8676 15.1857 14.2744 15.0655 14.6699 14.9141C15.597 14.5996 16.7524 14.2079 18.021 14.375C18.8155 14.4962 19.5698 14.8041 20.2222 15.2734V20.8438H13.7534ZM11.9566 11.5719C11.9903 11.6101 12.0318 11.6407 12.0782 11.6617C12.1247 11.6827 12.1751 11.6935 12.2261 11.6935C12.2771 11.6935 12.3275 11.6827 12.374 11.6617C12.4204 11.6407 12.4619 11.6101 12.4956 11.5719L18.7973 4.20469C18.8418 4.15266 18.8705 4.08899 18.8801 4.02118C18.8896 3.95338 18.8796 3.88426 18.8512 3.82195C18.8226 3.75924 18.7765 3.70607 18.7185 3.6688C18.6606 3.63152 18.5931 3.61171 18.5242 3.61172H15.73V0.359375C15.73 0.264063 15.6921 0.172654 15.6248 0.105259C15.5574 0.0378626 15.4659 0 15.3706 0L9.08157 0C8.98626 0 8.89485 0.0378626 8.82746 0.105259C8.76006 0.172654 8.7222 0.264063 8.7222 0.359375V3.60812H5.92446C5.85553 3.60811 5.78805 3.62793 5.73006 3.6652C5.67208 3.70248 5.62604 3.75564 5.59743 3.81836C5.56902 3.88066 5.559 3.94978 5.56855 4.01759C5.5781 4.0854 5.60682 4.14906 5.65134 4.20109L11.9566 11.5719ZM9.08157 4.32688C9.17688 4.32688 9.26829 4.28901 9.33569 4.22162C9.40309 4.15422 9.44095 4.06281 9.44095 3.9675V0.71875H15.0113V3.9675C15.0113 4.06281 15.0491 4.15422 15.1165 4.22162C15.1839 4.28901 15.2753 4.32688 15.3706 4.32688H17.7479L12.2261 10.7812L6.70431 4.32688H9.08157Z" fill="#1A80E5"/>
</g>
<defs>
<clipPath id="clip0_221_1234">
<rect width="23" height="23" fill="white" transform="translate(0.815918)"/>
</clipPath>
</defs>
</svg>
