<svg width="23" height="24" viewBox="0 0 23 24" fill="none" xmlns="http://www.w3.org/2000/svg">
<path d="M0.560416 12.5523C0.56063 12.3668 0.634419 12.189 0.765593 12.0578C0.896768 11.9266 1.07462 11.8528 1.26012 11.8526H3.36022V13.252H1.26012C1.07461 13.2518 0.896754 13.178 0.765578 13.0468C0.634402 12.9157 0.560618 12.7378 0.560416 12.5523ZM3.80944 10.5864V14.5183C3.80944 14.8212 3.92979 15.1118 4.14401 15.326C4.35824 15.5402 4.64879 15.6606 4.95175 15.6606C5.25472 15.6606 5.54527 15.5402 5.7595 15.326C5.97372 15.1118 6.09407 14.8212 6.09407 14.5183V10.5864C6.09407 10.2834 5.97372 9.99287 5.7595 9.77864C5.54527 9.56442 5.25472 9.44407 4.95175 9.44407C4.64879 9.44407 4.35824 9.56442 4.14401 9.77864C3.92979 9.99287 3.80944 10.2834 3.80944 10.5864ZM11.5001 8.29761C11.8029 8.29727 12.0933 8.17681 12.3074 7.96266C12.5216 7.7485 12.642 7.45815 12.6424 7.1553V3.22337C12.6424 2.92041 12.522 2.62986 12.3078 2.41563C12.0936 2.20141 11.803 2.08105 11.5001 2.08105C11.1971 2.08105 10.9065 2.20141 10.6923 2.41563C10.4781 2.62986 10.3577 2.92041 10.3577 3.22337V7.15525C10.3581 7.45811 10.4785 7.74848 10.6927 7.96264C10.9068 8.1768 11.1972 8.29727 11.5001 8.29761ZM22.4397 5.23394C22.4395 5.04845 22.3657 4.87063 22.2345 4.73949C22.1033 4.60834 21.9255 4.53458 21.74 4.53437H13.0916V5.93373H21.74C21.9255 5.93353 22.1034 5.85974 22.2346 5.72854C22.3658 5.59735 22.4395 5.41947 22.4397 5.23394ZM21.74 11.8526H6.54293V13.252H21.74C21.8324 13.2527 21.9239 13.2352 22.0095 13.2004C22.095 13.1655 22.1728 13.1141 22.2384 13.0491C22.304 12.984 22.356 12.9066 22.3915 12.8214C22.427 12.7361 22.4453 12.6447 22.4453 12.5523C22.4453 12.46 22.427 12.3685 22.3915 12.2833C22.356 12.198 22.304 12.1206 22.2384 12.0556C22.1728 11.9905 22.095 11.9391 22.0095 11.9043C21.9239 11.8695 21.8324 11.8519 21.74 11.8526ZM1.26012 5.93373H9.90852V4.53437H1.26012C1.16776 4.53363 1.07618 4.55118 0.990638 4.58602C0.905099 4.62085 0.827302 4.67227 0.761734 4.73731C0.696166 4.80236 0.644124 4.87974 0.608609 4.96499C0.573094 5.05025 0.55481 5.1417 0.55481 5.23405C0.55481 5.32641 0.573094 5.41786 0.608609 5.50311C0.644124 5.58837 0.696166 5.66575 0.761734 5.7308C0.827302 5.79584 0.905099 5.84726 0.990638 5.88209C1.07618 5.91692 1.16776 5.93447 1.26012 5.93373ZM21.74 19.1709H19.6005V20.5703H21.74C21.9256 20.5703 22.1035 20.4966 22.2348 20.3653C22.366 20.2341 22.4397 20.0561 22.4397 19.8706C22.4397 19.685 22.366 19.507 22.2348 19.3758C22.1035 19.2446 21.9256 19.1709 21.74 19.1709ZM0.560416 19.8706C0.560618 20.0561 0.634402 20.2339 0.765578 20.3651C0.896754 20.4963 1.07461 20.5701 1.26012 20.5703H16.4174V19.1709H1.26012C1.07461 19.1711 0.896764 19.2449 0.765591 19.376C0.634417 19.5072 0.56063 19.6851 0.560416 19.8706ZM18.009 16.6082C17.7061 16.6085 17.4158 16.729 17.2016 16.9431C16.9875 17.1572 16.867 17.4476 16.8667 17.7504V21.6824C16.8667 21.9853 16.987 22.2759 17.2012 22.4901C17.4155 22.7043 17.706 22.8247 18.009 22.8247C18.3119 22.8247 18.6025 22.7043 18.8167 22.4901C19.0309 22.2759 19.1513 21.9853 19.1513 21.6824V17.7505C19.151 17.4476 19.0305 17.1573 18.8163 16.9431C18.6022 16.729 18.3118 16.6085 18.009 16.6082Z" fill="#637587"/>
</svg>
