<svg width="18" height="18" viewBox="0 0 18 18" fill="none" xmlns="http://www.w3.org/2000/svg">
<path d="M14.25 2.625C14.8725 2.625 15.375 3.1275 15.375 3.75V14.25C15.375 14.8725 14.8725 15.375 14.25 15.375H3.75C3.1275 15.375 2.625 14.8725 2.625 14.25V3.75C2.625 3.1275 3.1275 2.625 3.75 2.625H14.25ZM14.25 1.5H3.75C2.505 1.5 1.5 2.505 1.5 3.75V14.25C1.5 15.495 2.505 16.5 3.75 16.5H14.25C15.495 16.5 16.5 15.495 16.5 14.25V3.75C16.5 2.505 15.495 1.5 14.25 1.5Z" fill="#637587"/>
<path d="M9 13.3125C8.6925 13.3125 8.4375 13.0575 8.4375 12.75V6C8.4375 5.6925 8.6925 5.4375 9 5.4375C9.3075 5.4375 9.5625 5.6925 9.5625 6V12.75C9.5625 13.0575 9.3075 13.3125 9 13.3125ZM6 13.3125C5.6925 13.3125 5.4375 13.0575 5.4375 12.75V9.75C5.4375 9.4425 5.6925 9.1875 6 9.1875C6.3075 9.1875 6.5625 9.4425 6.5625 9.75V12.75C6.5625 13.0575 6.3075 13.3125 6 13.3125ZM12 13.3125C11.6925 13.3125 11.4375 13.0575 11.4375 12.75V8.25C11.4375 7.9425 11.6925 7.6875 12 7.6875C12.3075 7.6875 12.5625 7.9425 12.5625 8.25V12.75C12.5625 13.0575 12.3075 13.3125 12 13.3125Z" fill="#637587"/>
</svg>
