<svg width="19" height="24" viewBox="0 0 19 24" fill="none" xmlns="http://www.w3.org/2000/svg">
<path d="M4.34797 1.26114C6.0309 1.10921 7.71983 1.03316 9.40961 1.0332C11.9031 1.03298 14.3966 1.19903 16.89 1.5314C17.2848 1.5849 17.9009 1.78388 17.9297 2.45873C17.9662 3.31079 16.9139 3.54182 16.9609 4.29201C17.1215 6.85882 17.2015 9.43005 17.2007 12.0019C17.2015 14.5737 17.1215 17.1449 16.9609 19.7117C16.9139 20.4619 17.9661 20.693 17.9297 21.545C17.9009 22.2198 17.2848 22.4189 16.89 22.4724C14.3966 22.8046 11.9031 22.9707 9.40961 22.9705C6.91613 22.9707 4.42265 22.8046 1.92918 22.4723C1.53439 22.4188 0.918297 22.2198 0.889474 21.5449C0.853059 20.6929 1.90534 20.4619 1.85833 19.7117C1.69769 17.1449 1.61772 14.5737 1.61852 12.0018C1.61772 9.43 1.69769 6.85878 1.85833 4.29197C1.90534 3.54178 0.853103 3.31075 0.889474 2.45868C0.918297 1.78388 1.53439 1.58486 1.92918 1.53136C2.27335 1.48547 2.61793 1.44272 2.96288 1.40309" stroke="#1A80E5" stroke-width="0.8" stroke-miterlimit="10" stroke-linecap="round" stroke-linejoin="round"/>
<path d="M8.05509 12.3026L7.96186 12.2309C7.60915 11.9596 7.09647 12.0773 6.89744 12.4753L5.17018 15.9299C4.8948 16.4806 5.40549 17.0959 5.99753 16.9267L10.5316 15.6313C11.0902 15.4717 11.2291 14.7442 10.7686 14.39L9.47011 13.3911" stroke="#1A80E5" stroke-width="0.8" stroke-miterlimit="10" stroke-linecap="round" stroke-linejoin="round"/>
<path d="M7.98917 14.5381L9.40445 13.4766V11.3667C9.40445 11.1435 9.45726 10.9234 9.55856 10.7245C9.65986 10.5256 9.80678 10.3534 9.98731 10.2221M3.3894 3.22007C5.39616 2.94133 7.40291 2.80203 9.40966 2.80225C11.4164 2.80207 13.4232 2.94133 15.4299 3.22007M15.4299 20.7834C13.4232 21.0621 11.4164 21.2014 9.40966 21.2012C7.40291 21.2014 5.39616 21.0621 3.3894 20.7834M13.4372 7.56581C13.1866 7.31784 12.7808 7.31536 12.4957 7.52269L10.1434 9.23362C9.82735 9.46349 9.75752 9.90604 9.98736 10.2221C10.2172 10.5381 10.6597 10.6079 10.9757 10.3781L13.3589 8.64502C13.7067 8.39206 13.7564 7.8818 13.4372 7.56581Z" stroke="#1A80E5" stroke-width="0.8" stroke-miterlimit="10" stroke-linecap="round" stroke-linejoin="round"/>
</svg>
