<svg width="20" height="20" viewBox="0 0 20 20" fill="none" xmlns="http://www.w3.org/2000/svg">
<path d="M14.7366 6.8577V5.57623M10.1604 1H2.53324C1.69078 1 1.00781 1.68297 1.00781 2.52542V17.4746C1.00781 18.317 1.69078 19 2.53324 19H5.95507M10.1604 1V4.05085C10.1604 4.8933 10.8433 5.57627 11.6858 5.57627H14.7366L10.1604 1ZM4.05866 8.32203H11.6858M4.05866 11.3729H10.2214M4.05866 14.4237H7.33721M10.8566 18.6418L9.06582 19L9.42399 17.2092C9.54211 16.6186 9.83242 16.0761 10.2583 15.6502L16.8505 9.05805L19.0078 11.2153L12.4156 17.8075C11.9897 18.2334 11.4473 18.5237 10.8566 18.6418Z" stroke="currentColor" stroke-width="1.2" stroke-miterlimit="10" stroke-linecap="round" stroke-linejoin="round"/>
</svg>
