<svg width="149" height="146" viewBox="0 0 149 146" fill="none" xmlns="http://www.w3.org/2000/svg">
<g clip-path="url(#clip0_220_1041)">
<path d="M94.5913 32.8348H54.4423C53.5274 32.8359 52.6502 33.2012 52.0033 33.8507C51.3563 34.5001 50.9924 35.3806 50.9913 36.299V125.873L50.5311 126.014L40.6819 129.041C40.2152 129.184 39.711 129.135 39.2801 128.905C38.8492 128.675 38.5268 128.283 38.3836 127.815L9.08678 31.7516C8.94421 31.283 8.9928 30.7768 9.22188 30.3442C9.45096 29.9116 9.84178 29.5879 10.3085 29.4444L25.486 24.7793L69.4864 11.2595L84.6639 6.59433C84.8949 6.52297 85.1376 6.49803 85.3782 6.52094C85.6188 6.54386 85.8525 6.61418 86.066 6.72787C86.2795 6.84156 86.4685 6.99639 86.6224 7.18351C86.7762 7.37063 86.8917 7.58636 86.9623 7.81836L94.451 32.3729L94.5913 32.8348Z" fill="#F2F2F2"/>
<path d="M103.352 32.3731L94.3266 2.77928C94.1765 2.28619 93.931 1.82763 93.6042 1.42982C93.2775 1.032 92.8758 0.702724 92.4222 0.460795C91.9686 0.218866 91.472 0.0690269 90.9607 0.0198466C90.4494 -0.0293337 89.9334 0.023108 89.4423 0.17417L68.1036 6.73082L24.1055 20.2529L2.76678 26.8118C1.77549 27.1174 0.945474 27.8053 0.458913 28.7245C-0.0276473 29.6438 -0.131 30.7192 0.171547 31.7149L31.019 132.854C31.2648 133.658 31.7607 134.362 32.434 134.862C33.1073 135.362 33.9225 135.632 34.76 135.633C35.1476 135.633 35.533 135.575 35.9033 135.46L50.531 130.965L50.9912 130.822V130.339L50.531 130.48L35.7676 135.018C34.8926 135.286 33.9476 135.195 33.1397 134.764C32.3319 134.333 31.7273 133.598 31.4585 132.721L0.61337 31.5786C0.480182 31.1437 0.433762 30.6867 0.476768 30.2338C0.519773 29.7809 0.651356 29.3409 0.863989 28.9391C1.07662 28.5373 1.36613 28.1815 1.71592 27.8922C2.06572 27.6029 2.46893 27.3856 2.90247 27.253L24.2412 20.694L68.2394 7.17424L89.5781 0.615287C89.907 0.514547 90.2488 0.463181 90.5926 0.46286C91.3305 0.464523 92.0484 0.703314 92.6413 1.14426C93.2342 1.5852 93.6708 2.20513 93.8873 2.91323L102.871 32.3731L103.014 32.835H103.493L103.352 32.3731Z" fill="#3F3D56"/>
<path d="M28.2249 29.5202C27.7815 29.5198 27.3498 29.3769 26.9932 29.1123C26.6367 28.8476 26.374 28.4753 26.2437 28.0498L23.2803 18.3333C23.2007 18.0723 23.1731 17.7981 23.199 17.5264C23.225 17.2547 23.304 16.9908 23.4316 16.7497C23.5591 16.5087 23.7328 16.2952 23.9425 16.1215C24.1523 15.9478 24.3941 15.8173 24.6541 15.7374L65.132 3.29762C65.6571 3.13677 66.2243 3.19163 66.7091 3.45016C67.194 3.70868 67.5568 4.14975 67.7181 4.67655L70.6814 14.3931C70.8416 14.9202 70.7869 15.4896 70.5293 15.9763C70.2718 16.4629 69.8325 16.8272 69.3078 16.9891L28.8298 29.4289C28.6338 29.4893 28.4299 29.5201 28.2249 29.5202Z" fill="#1A80E5"/>
<path d="M43.7481 10.382C46.2893 10.382 48.3494 8.31402 48.3494 5.76303C48.3494 3.21203 46.2893 1.14404 43.7481 1.14404C41.2068 1.14404 39.1467 3.21203 39.1467 5.76303C39.1467 8.31402 41.2068 10.382 43.7481 10.382Z" fill="#1A80E5"/>
<path d="M43.7482 8.68815C45.3574 8.68815 46.6619 7.37863 46.6619 5.76326C46.6619 4.14789 45.3574 2.83838 43.7482 2.83838C42.139 2.83838 40.8345 4.14789 40.8345 5.76326C40.8345 7.37863 42.139 8.68815 43.7482 8.68815Z" fill="white"/>
<path d="M138.647 134.453H60.8843C60.3658 134.452 59.8687 134.245 59.5021 133.877C59.1355 133.509 58.9293 133.01 58.9287 132.49V38.9553C58.9293 38.4348 59.1355 37.9358 59.5021 37.5678C59.8687 37.1998 60.3658 36.9928 60.8843 36.9922H138.647C139.166 36.9928 139.663 37.1998 140.029 37.5678C140.396 37.9358 140.602 38.4348 140.603 38.9553V132.49C140.602 133.01 140.396 133.509 140.029 133.877C139.663 134.245 139.166 134.452 138.647 134.453Z" fill="#E6E6E6"/>
<path d="M102.871 32.373H54.4423C53.4054 32.3745 52.4115 32.7886 51.6783 33.5246C50.9451 34.2606 50.5326 35.2584 50.5311 36.2992V130.48L50.9913 130.339V36.2992C50.9924 35.3808 51.3563 34.5003 52.0033 33.8508C52.6502 33.2014 53.5274 32.8361 54.4423 32.8349H103.014L102.871 32.373ZM145.089 32.373H54.4423C53.4054 32.3745 52.4115 32.7886 51.6783 33.5246C50.9451 34.2606 50.5326 35.2584 50.5311 36.2992V142.074C50.5326 143.115 50.9451 144.112 51.6783 144.848C52.4115 145.584 53.4054 145.999 54.4423 146H145.089C146.126 145.999 147.12 145.584 147.853 144.848C148.586 144.112 148.999 143.115 149 142.074V36.2992C148.999 35.2584 148.586 34.2606 147.853 33.5246C147.12 32.7886 146.126 32.3745 145.089 32.373ZM148.54 142.074C148.539 142.992 148.175 143.873 147.528 144.522C146.881 145.172 146.004 145.537 145.089 145.538H54.4423C53.5274 145.537 52.6502 145.172 52.0033 144.522C51.3563 143.873 50.9924 142.992 50.9913 142.074V36.2992C50.9924 35.3808 51.3563 34.5003 52.0033 33.8508C52.6502 33.2014 53.5274 32.8361 54.4423 32.8349H145.089C146.004 32.8361 146.881 33.2014 147.528 33.8508C148.175 34.5003 148.539 35.3808 148.54 36.2992V142.074Z" fill="#3F3D56"/>
<path d="M120.932 42.5347H78.5994C78.0504 42.534 77.5241 42.3149 77.136 41.9252C76.7478 41.5355 76.5294 41.0072 76.5288 40.4561V30.2944C76.5294 29.7433 76.7478 29.215 77.136 28.8253C77.5241 28.4356 78.0504 28.2164 78.5994 28.2158H120.932C121.481 28.2164 122.007 28.4356 122.395 28.8253C122.783 29.215 123.002 29.7433 123.002 30.2944V40.4561C123.002 41.0072 122.783 41.5355 122.395 41.9252C122.007 42.3149 121.481 42.534 120.932 42.5347Z" fill="#1A80E5"/>
<path d="M99.7655 28.9089C102.307 28.9089 104.367 26.8409 104.367 24.2899C104.367 21.7389 102.307 19.6709 99.7655 19.6709C97.2243 19.6709 95.1642 21.7389 95.1642 24.2899C95.1642 26.8409 97.2243 28.9089 99.7655 28.9089Z" fill="#1A80E5"/>
<path d="M99.7655 27.1033C101.313 27.1033 102.568 25.8437 102.568 24.29C102.568 22.7362 101.313 21.4766 99.7655 21.4766C98.2177 21.4766 96.9629 22.7362 96.9629 24.29C96.9629 25.8437 98.2177 27.1033 99.7655 27.1033Z" fill="white"/>
</g>
<defs>
<clipPath id="clip0_220_1041">
<rect width="149" height="146" fill="white"/>
</clipPath>
</defs>
</svg>
