<svg width="31" height="24" viewBox="0 0 31 24" fill="none" xmlns="http://www.w3.org/2000/svg">
<path d="M6.61711 11.8797L1.2437 9.64078L0.874774 10.5248L4.41312 11.999V16.3112C4.41312 16.4383 4.4636 16.5601 4.55346 16.65C4.64331 16.7398 4.76518 16.7903 4.89225 16.7903H7.31424C7.56398 17.1876 7.85691 17.5561 8.18768 17.8889C8.31013 18.0116 8.45864 18.1051 8.62218 18.1625C8.78572 18.2199 8.9601 18.2397 9.13235 18.2205C9.30461 18.2013 9.47031 18.1435 9.61716 18.0514C9.764 17.9593 9.88822 17.8353 9.98058 17.6887L10.073 17.8051C10.2014 17.9661 10.3715 18.0887 10.5649 18.1595C10.7582 18.2303 10.9673 18.2465 11.1693 18.2064C11.3712 18.1663 11.5582 18.0714 11.7099 17.932C11.8615 17.7927 11.9718 17.6144 12.0288 17.4165C12.1543 17.5405 12.3065 17.6339 12.4738 17.6897C12.6411 17.7454 12.819 17.7619 12.9937 17.7379C13.1683 17.7139 13.3352 17.6501 13.4813 17.5513C13.6273 17.4526 13.7488 17.3215 13.8361 17.1683C14.075 17.2772 14.3444 17.2989 14.5977 17.2299C14.851 17.1608 15.0721 17.0053 15.2227 16.7903H22.1408C22.2679 16.7903 22.3897 16.7398 22.4796 16.65C22.5695 16.5601 22.6199 16.4383 22.6199 16.3112V0.979127C22.6199 0.852054 22.5695 0.730187 22.4796 0.640333C22.3897 0.550479 22.2679 0.5 22.1408 0.5H4.89225C4.76518 0.5 4.64331 0.550479 4.55346 0.640333C4.4636 0.730187 4.41312 0.852054 4.41312 0.979127V4.97456L1.3194 2.97277L0.799072 3.77723L8.54799 8.79129L6.61711 11.8797ZM5.37138 15.8321V12.3986L6.32963 12.7977V13.4024C6.32797 14.2359 6.49079 15.0616 6.80876 15.8321H5.37138ZM14.1681 16.2489L11.9685 13.6089L11.2316 14.2227L12.4232 15.6519L12.9651 16.3744C13.0118 16.4373 13.0372 16.5136 13.0374 16.5919C13.0343 16.6297 13.0209 16.6659 12.9986 16.6966C12.9763 16.7272 12.9459 16.7511 12.9109 16.7656C12.8759 16.7802 12.8376 16.7847 12.8001 16.7789C12.7627 16.773 12.7276 16.7569 12.6987 16.7323L10.5014 14.5351L9.8239 15.213L10.7271 16.1162L11.0323 16.7261C11.0905 16.8426 11.1209 16.971 11.1209 17.1013C11.1177 17.1344 11.105 17.1659 11.0845 17.1921C11.064 17.2183 11.0364 17.2381 11.005 17.2492C10.9736 17.2603 10.9397 17.2622 10.9073 17.2546C10.8748 17.2471 10.8452 17.2304 10.8219 17.2067L9.09707 15.054L8.34867 15.6524L9.15265 16.6585C9.18432 16.7943 9.20039 16.9332 9.20056 17.0725C9.1975 17.1103 9.18407 17.1465 9.16176 17.1772C9.13944 17.2078 9.1091 17.2317 9.07408 17.2462C9.03906 17.2607 9.00071 17.2653 8.96326 17.2594C8.92581 17.2535 8.89071 17.2374 8.86181 17.2129C8.36063 16.7133 7.96347 16.1193 7.69331 15.4652C7.42315 14.8112 7.28535 14.1101 7.28788 13.4024V12.6152L9.41952 9.20429L10.9575 9.37534C12.3258 9.527 13.7014 9.60313 15.078 9.60341C15.1628 9.60312 15.2449 9.63311 15.3095 9.68797C15.3742 9.74282 15.4171 9.81894 15.4306 9.90264C15.4441 9.98634 15.4273 10.0721 15.3833 10.1445C15.3392 10.2169 15.2707 10.2712 15.1901 10.2977C14.666 10.4726 14.117 10.5617 13.5644 10.5617H12.5583C12.4765 10.5616 12.3961 10.5824 12.3247 10.6222C12.2533 10.662 12.1932 10.7193 12.1503 10.7889C12.1073 10.8584 12.0828 10.9378 12.0792 11.0195C12.0755 11.1011 12.0928 11.1824 12.1295 11.2554L14.3885 15.7726C14.4451 15.886 14.4746 16.011 14.4748 16.1377C14.4717 16.1718 14.4589 16.2043 14.438 16.2314C14.4171 16.2585 14.3889 16.2791 14.3568 16.2907C14.3246 16.3024 14.2898 16.3046 14.2564 16.2972C14.223 16.2898 14.1924 16.2731 14.1681 16.2489ZM12.0792 1.45825H14.9539V5.29127H12.0792V1.45825ZM5.37138 5.59455V1.45825H11.1209V5.77039C11.1209 5.89747 11.1714 6.01933 11.2612 6.10919C11.3511 6.19904 11.473 6.24952 11.6 6.24952H15.433C15.5601 6.24952 15.682 6.19904 15.7718 6.10919C15.8617 6.01933 15.9122 5.89747 15.9122 5.77039V1.45825H21.6617V15.8321H15.3971C15.3707 15.663 15.3197 15.4986 15.2457 15.3443L15.0104 14.8738H20.7034V13.9155H14.5313L13.3335 11.5199H13.5644C14.2205 11.5199 14.8723 11.4143 15.4948 11.207C15.7911 11.1082 16.0425 10.9072 16.204 10.6399C16.3656 10.3726 16.4267 10.0565 16.3764 9.74826C16.3261 9.44003 16.1678 9.15975 15.9297 8.95762C15.6916 8.7555 15.3894 8.64473 15.077 8.64515C13.7361 8.64474 12.3962 8.57069 11.0634 8.42332L9.46743 8.24604L9.46456 8.24317L5.37138 5.59455ZM21.3234 17.7922L18.9005 18.1381C18.6045 18.1818 18.3339 18.3298 18.1374 18.5554C17.9409 18.781 17.8314 19.0693 17.8287 19.3685L14.8916 18.7811C14.1656 18.6278 13.4092 18.7184 12.7399 19.0388C12.528 19.1443 12.3522 19.3103 12.2347 19.5158C12.1173 19.7213 12.0636 19.957 12.0803 20.1931C12.097 20.4292 12.1835 20.655 12.3287 20.8419C12.474 21.0288 12.6714 21.1683 12.8961 21.2428L19.0768 23.3031C19.7691 23.5338 20.5129 23.5624 21.2209 23.3855L24.0822 22.6701C24.1075 22.7643 24.1611 22.8484 24.2359 22.911C24.3107 22.9736 24.4029 23.0116 24.5 23.0199L30.7287 23.499L30.802 22.5398L25.0156 22.0962V19.1859H30.7651V18.2277H24.5364C24.4701 18.2281 24.4047 18.2425 24.3443 18.2698C24.2838 18.2971 24.2298 18.3368 24.1857 18.3863C23.3294 17.8623 22.3175 17.6523 21.3234 17.7922ZM20.988 22.4541C20.4569 22.5865 19.899 22.565 19.3796 22.3923L13.1989 20.332C13.1545 20.3171 13.1156 20.2895 13.087 20.2525C13.0584 20.2155 13.0414 20.1709 13.0381 20.1242C13.0348 20.0776 13.0454 20.031 13.0686 19.9904C13.0917 19.9498 13.1264 19.9169 13.1682 19.896C13.6469 19.6703 14.1866 19.6087 14.7038 19.7206L18.5129 20.4825C18.6871 20.5737 18.8806 20.622 19.0773 20.6233H20.7034V19.6651H19.0773C19.0042 19.6643 18.9342 19.636 18.881 19.5859C18.8279 19.5358 18.7955 19.4675 18.7904 19.3947C18.7852 19.3218 18.8077 19.2497 18.8533 19.1926C18.8989 19.1356 18.9643 19.0978 19.0365 19.0868L21.459 18.7408C22.2787 18.626 23.112 18.815 23.8019 19.2722L24.0573 19.4428V21.687L20.988 22.4541Z" fill="#1A80E5"/>
<path d="M16.8699 11.999H20.7029V12.9573H16.8699V11.999Z" fill="#1A80E5"/>
</svg>