<svg width="13" height="13" viewBox="0 0 13 13" fill="none" xmlns="http://www.w3.org/2000/svg">
<mask id="mask0_751_1066" style="mask-type:luminance" maskUnits="userSpaceOnUse" x="0" y="0" width="13" height="13">
<path d="M12.3561 12.3458V1.04834H1.05859V12.3458H12.3561Z" fill="white" stroke="white"/>
</mask>
<g mask="url(#mask0_751_1066)">
<path d="M11.4142 7.0814C11.363 4.26048 9.06024 1.98948 6.22706 1.98948C3.36182 1.98948 1.03906 4.31224 1.03906 7.17748C1.03906 10.0427 3.36182 12.3655 6.22706 12.3655C6.3319 12.3655 6.436 12.3624 6.5393 12.3562" stroke="#1A80E5" stroke-miterlimit="10" stroke-linecap="round" stroke-linejoin="round"/>
<path d="M5.74658 7.17747C5.74658 6.91216 5.96164 6.6971 6.22695 6.6971C6.49226 6.6971 6.70732 6.91216 6.70732 7.17747C6.70732 7.44278 6.49226 7.65784 6.22695 7.65784C5.96164 7.65784 5.74658 7.44278 5.74658 7.17747Z" stroke="#1A80E5" stroke-miterlimit="10"/>
<mask id="path-4-inside-1_751_1066" fill="white">
<path d="M6.70732 1.9895H5.74658V1.02876C5.74658 0.763452 5.96164 0.54839 6.22695 0.54839C6.49226 0.54839 6.70732 0.763452 6.70732 1.02876V1.9895Z"/>
</mask>
<path d="M6.70732 1.9895H5.74658V1.02876C5.74658 0.763452 5.96164 0.54839 6.22695 0.54839C6.49226 0.54839 6.70732 0.763452 6.70732 1.02876V1.9895Z" fill="black"/>
<path d="M6.70732 1.9895H7.70732V2.9895H6.70732V1.9895ZM5.74658 1.9895V2.9895H4.74658V1.9895H5.74658ZM6.70732 2.9895H5.74658V0.989502H6.70732V2.9895ZM4.74658 1.9895V1.02876H6.74658V1.9895H4.74658ZM4.74658 1.02876C4.74658 0.211168 5.40936 -0.45161 6.22695 -0.45161V1.54839C6.51393 1.54839 6.74658 1.31574 6.74658 1.02876H4.74658ZM6.22695 -0.45161C7.04455 -0.45161 7.70732 0.211168 7.70732 1.02876H5.70732C5.70732 1.31574 5.93998 1.54839 6.22695 1.54839V-0.45161ZM7.70732 1.02876V1.9895H5.70732V1.02876H7.70732Z" fill="#1A80E5" mask="url(#path-4-inside-1_751_1066)"/>
<path d="M9.80566 1.36498L11.1016 2.44092" stroke="#1A80E5" stroke-miterlimit="10" stroke-linecap="round" stroke-linejoin="round"/>
<path d="M2.67245 1.36498L1.35254 2.44092" stroke="#1A80E5" stroke-miterlimit="10" stroke-linecap="round" stroke-linejoin="round"/>
<path d="M8.8633 12.3102L12.1952 10.2845C12.4358 10.1382 12.4358 9.78905 12.1952 9.64275L8.8633 7.61705C8.61298 7.46485 8.29248 7.64501 8.29248 7.93792V11.9893C8.29248 12.2822 8.61298 12.4624 8.8633 12.3102Z" stroke="#1A80E5" stroke-miterlimit="10" stroke-linecap="round" stroke-linejoin="round"/>
</g>
</svg>
