<svg width="15" height="15" viewBox="0 0 15 15" fill="none" xmlns="http://www.w3.org/2000/svg">
<g clip-path="url(#clip0_751_1067)">
<path d="M12.332 1.79045C12.0482 1.50602 11.6708 1.34937 11.2692 1.34937H10.5908V1.21265C10.5908 0.835713 10.2842 0.529053 9.90723 0.529053H4.98535C4.60842 0.529053 4.30176 0.835713 4.30176 1.21265V1.34937H3.62098C2.79353 1.34937 2.11959 2.02328 2.11866 2.8516L2.10742 13.0235C2.10699 13.4255 2.26304 13.8035 2.54684 14.088C2.83066 14.3724 3.20815 14.5291 3.60974 14.5291H11.2579C12.0854 14.5291 12.7593 13.8551 12.7602 13.0268L12.7715 2.85494C12.7719 2.4529 12.6159 2.07485 12.332 1.79045ZM5.12207 1.34937H9.77051V2.16968H5.12207V1.34937ZM11.9408 13.0259C11.9403 13.4024 11.634 13.7087 11.2579 13.7087H3.60974C3.4272 13.7087 3.25561 13.6375 3.12661 13.5083C2.9976 13.3789 2.92667 13.2071 2.92686 13.0244L2.9381 2.85253C2.93851 2.47598 3.24484 2.16968 3.62098 2.16968H4.30176V2.3064C4.30176 2.68333 4.60842 2.98999 4.98535 2.98999H9.90723C10.2842 2.98999 10.5908 2.68333 10.5908 2.3064V2.16968H11.2692C11.4517 2.16968 11.6233 2.24088 11.7523 2.37016C11.8813 2.49944 11.9523 2.6713 11.952 2.85401L11.9408 13.0259Z" fill="#1A80E5"/>
<path d="M7.57864 5.9978H10.4927C10.7192 5.9978 10.9028 5.81416 10.9028 5.58764C10.9028 5.36112 10.7192 5.17748 10.4927 5.17748H7.57864C7.35213 5.17748 7.16849 5.36112 7.16849 5.58764C7.16849 5.81416 7.35213 5.9978 7.57864 5.9978ZM7.57864 8.73217H10.4927C10.7192 8.73217 10.9028 8.54853 10.9028 8.32202C10.9028 8.0955 10.7192 7.91186 10.4927 7.91186H7.57864C7.35213 7.91186 7.16849 8.0955 7.16849 8.32202C7.16849 8.54853 7.35213 8.73217 7.57864 8.73217ZM10.5044 10.6462H7.57864C7.35213 10.6462 7.16849 10.8299 7.16849 11.0564C7.16849 11.2829 7.35213 11.4665 7.57864 11.4665H10.5044C10.7309 11.4665 10.9146 11.2829 10.9146 11.0564C10.9146 10.8299 10.731 10.6462 10.5044 10.6462ZM5.83294 4.47084L4.88706 5.41671L4.66404 5.19367C4.50387 5.03349 4.24418 5.03349 4.084 5.19367C3.92382 5.35382 3.92382 5.61353 4.084 5.77371L4.59705 6.28679C4.67397 6.36371 4.7783 6.40692 4.88707 6.40692C4.99585 6.40692 5.10018 6.36371 5.1771 6.28679L6.41301 5.05091C6.57319 4.89076 6.57319 4.63105 6.41301 4.47087C6.25283 4.31066 5.99314 4.31066 5.83294 4.47084ZM5.83294 7.41404L4.88706 8.35991L4.66404 8.1369C4.50387 7.97672 4.24418 7.97672 4.084 8.1369C3.92382 8.29705 3.92382 8.55673 4.084 8.71694L4.59705 9.23002C4.67397 9.30694 4.7783 9.35015 4.88707 9.35015C4.99585 9.35015 5.10018 9.30694 5.1771 9.23002L6.41301 7.99411C6.57319 7.83396 6.57319 7.57425 6.41301 7.41407C6.25283 7.25389 5.99312 7.25389 5.83294 7.41404ZM5.83294 10.1484L4.88706 11.0943L4.66404 10.8713C4.50387 10.7111 4.24418 10.7111 4.084 10.8713C3.92382 11.0314 3.92382 11.2911 4.084 11.4513L4.59705 11.9644C4.67397 12.0413 4.7783 12.0845 4.88707 12.0845C4.99585 12.0845 5.10018 12.0413 5.1771 11.9644L6.41301 10.7285C6.57319 10.5683 6.57319 10.3086 6.41301 10.1484C6.25283 9.98826 5.99312 9.98826 5.83294 10.1484Z" fill="#1A80E5"/>
</g>
<defs>
<clipPath id="clip0_751_1067">
<rect width="14" height="14" fill="white" transform="translate(0.439453 0.529053)"/>
</clipPath>
</defs>
</svg>
