<svg width="18" height="18" viewBox="0 0 18 18" fill="none" xmlns="http://www.w3.org/2000/svg">
<path d="M9.5625 3.65625C9.5625 3.50707 9.50324 3.36399 9.39775 3.2585C9.29226 3.15301 9.14918 3.09375 9 3.09375C8.85082 3.09375 8.70774 3.15301 8.60225 3.2585C8.49676 3.36399 8.4375 3.50707 8.4375 3.65625V6.1875C8.43755 6.27176 8.45654 6.35494 8.49305 6.43088C8.52956 6.50682 8.58266 6.57359 8.64844 6.62625L10.0547 7.75125C10.112 7.80018 10.1785 7.8371 10.2504 7.85981C10.3222 7.88253 10.3979 7.89058 10.4729 7.88349C10.5479 7.87639 10.6207 7.8543 10.687 7.81853C10.7534 7.78275 10.8118 7.73402 10.8589 7.67522C10.906 7.61642 10.9409 7.54875 10.9613 7.47624C10.9818 7.40372 10.9875 7.32783 10.978 7.25308C10.9686 7.17833 10.9442 7.10623 10.9064 7.04107C10.8686 6.9759 10.8181 6.91901 10.7578 6.87375L9.5625 5.9175V3.65625Z" fill="white"/>
<path fill-rule="evenodd" clip-rule="evenodd" d="M3.9375 6.1875C3.9375 4.84484 4.47087 3.55717 5.42027 2.60777C6.36967 1.65837 7.65734 1.125 9 1.125C10.3427 1.125 11.6303 1.65837 12.5797 2.60777C13.5291 3.55717 14.0625 4.84484 14.0625 6.1875C14.0625 7.53016 13.5291 8.81782 12.5797 9.76723C11.6303 10.7166 10.3427 11.25 9 11.25C7.65734 11.25 6.36967 10.7166 5.42027 9.76723C4.47087 8.81782 3.9375 7.53016 3.9375 6.1875ZM9 2.25C8.48292 2.25 7.9709 2.35185 7.49318 2.54972C7.01546 2.7476 6.5814 3.03764 6.21577 3.40327C5.85014 3.7689 5.5601 4.20296 5.36222 4.68068C5.16435 5.1584 5.0625 5.67042 5.0625 6.1875C5.0625 6.70458 5.16435 7.2166 5.36222 7.69432C5.5601 8.17204 5.85014 8.6061 6.21577 8.97173C6.5814 9.33736 7.01546 9.6274 7.49318 9.82528C7.9709 10.0232 8.48292 10.125 9 10.125C10.0443 10.125 11.0458 9.71016 11.7842 8.97173C12.5227 8.23331 12.9375 7.23179 12.9375 6.1875C12.9375 5.14321 12.5227 4.14169 11.7842 3.40327C11.0458 2.66484 10.0443 2.25 9 2.25Z" fill="white"/>
<path d="M3.375 14.0625C3.22582 14.0625 3.08274 14.1218 2.97725 14.2273C2.87176 14.3327 2.8125 14.4758 2.8125 14.625C2.8125 14.7742 2.87176 14.9173 2.97725 15.0227C3.08274 15.1282 3.22582 15.1875 3.375 15.1875H6.75C6.89918 15.1875 7.04226 15.1282 7.14775 15.0227C7.25324 14.9173 7.3125 14.7742 7.3125 14.625C7.3125 14.4758 7.25324 14.3327 7.14775 14.2273C7.04226 14.1218 6.89918 14.0625 6.75 14.0625H3.375Z" fill="white"/>
<path fill-rule="evenodd" clip-rule="evenodd" d="M3.375 12.375C2.77826 12.375 2.20597 12.6121 1.78401 13.034C1.36205 13.456 1.125 14.0283 1.125 14.625C1.125 15.2217 1.36205 15.794 1.78401 16.216C2.20597 16.6379 2.77826 16.875 3.375 16.875H14.625C15.2217 16.875 15.794 16.6379 16.216 16.216C16.6379 15.794 16.875 15.2217 16.875 14.625C16.875 14.0283 16.6379 13.456 16.216 13.034C15.794 12.6121 15.2217 12.375 14.625 12.375H3.375ZM2.25 14.625C2.25 14.3266 2.36853 14.0405 2.5795 13.8295C2.79048 13.6185 3.07663 13.5 3.375 13.5H14.625C14.9234 13.5 15.2095 13.6185 15.4205 13.8295C15.6315 14.0405 15.75 14.3266 15.75 14.625C15.75 14.9234 15.6315 15.2095 15.4205 15.4205C15.2095 15.6315 14.9234 15.75 14.625 15.75H3.375C3.07663 15.75 2.79048 15.6315 2.5795 15.4205C2.36853 15.2095 2.25 14.9234 2.25 14.625Z" fill="white"/>
</svg>
